<svg xmlns="http://www.w3.org/2000/svg" width="1200" height="630" viewBox="0 0 1200 630">
  <defs>
    <linearGradient id="bg" x1="0" y1="0" x2="1200" y2="630">
      <stop stop-color="#05070c"/>
      <stop offset="1" stop-color="#0a101c"/>
    </linearGradient>
    <radialGradient id="glow" cx="50%" cy="-10%" r="75%">
      <stop stop-color="#2a4a8f" stop-opacity="0.55"/>
      <stop offset="1" stop-color="#05070c" stop-opacity="0"/>
    </radialGradient>
    <linearGradient id="lg1" x1="820" y1="210" x2="600" y2="470">
      <stop stop-color="#6ea1ff"/>
      <stop offset="1" stop-color="#a06bff"/>
    </linearGradient>
    <linearGradient id="lg2" x1="0" y1="0" x2="32" y2="32">
      <stop stop-color="#4fd7ff"/>
      <stop offset="1" stop-color="#a06bff"/>
    </linearGradient>
  </defs>

  <rect width="1200" height="630" fill="url(#bg)"/>
  <rect width="1200" height="630" fill="url(#glow)"/>

  <!-- grid -->
  <g stroke="#ffffff" stroke-opacity="0.035" stroke-width="1">
    <path d="M0 90h1200M0 180h1200M0 270h1200M0 360h1200M0 450h1200M0 540h1200"/>
    <path d="M90 0v630M180 0v630M270 0v630M360 0v630M450 0v630M540 0v630M630 0v630M720 0v630M810 0v630M900 0v630M990 0v630M1080 0v630"/>
  </g>

  <!-- graph vignette -->
  <g stroke="#ffffff" stroke-opacity="0.10" stroke-width="2">
    <circle cx="780" cy="400" r="6" fill="#5b8cff"/>
    <circle cx="1050" cy="300" r="6" fill="#5b8cff"/>
    <circle cx="940" cy="520" r="6" fill="#5b8cff"/>
    <line x1="780" y1="400" x2="1050" y2="300"/>
    <line x1="780" y1="400" x2="940" y2="520"/>
  </g>
  <g stroke="#a06bff" stroke-width="4" stroke-linecap="round">
    <line x1="1050" y1="300" x2="940" y2="520"/>
  </g>

  <!-- mark -->
  <g transform="translate(90 92)">
    <rect x="1.5" y="1.5" width="58" height="58" rx="16" stroke="url(#lg2)" stroke-width="3"/>
    <path d="M20 42 27 22l6 12 6-12 7 20" stroke="url(#lg2)" stroke-width="4" stroke-linecap="round" stroke-linejoin="round" fill="none"/>
  </g>

  <text x="172" y="132" font-family="Inter, system-ui, -apple-system, 'Segoe UI', sans-serif" font-size="44" font-weight="700" fill="#eef1f7" letter-spacing="-1">axiom</text>

  <text x="90" y="300" font-family="Inter, system-ui, sans-serif" font-size="68" font-weight="650" fill="#eef1f7" letter-spacing="-3">Keep <tspan font-family="Georgia, 'Times New Roman', serif" font-style="italic" font-weight="400" fill="#a06bff">maximal</tspan> matching</text>
  <text x="90" y="392" font-family="Inter, system-ui, sans-serif" font-size="68" font-weight="650" fill="#eef1f7" letter-spacing="-3">maximal, <tspan font-family="Georgia, serif" font-style="italic" font-weight="400">at speed.</tspan></text>

  <text x="92" y="470" font-family="ui-monospace, SFMono-Regular, Menlo, monospace" font-size="26" fill="#8b93a5">basic + recursive multilevel · pure Python · zero deps</text>

  <text x="90" y="560" font-family="Inter, system-ui, sans-serif" font-size="22" font-weight="600" letter-spacing="1.5" fill="#5b8cff">STOC 2026 · ARXIV:2605.00797</text>
  <rect x="90" y="588" width="220" height="2" rx="1" fill="url(#lg2)" opacity="0.7"/>
</svg>
